<?xml version="1.0" encoding="utf-8"?>
<!-- Generator: Adobe Illustrator 20.1.0, SVG Export Plug-In . SVG Version: 6.00 Build 0)  -->
<svg version="1.1" id="Слой_1" xmlns="http://www.w3.org/2000/svg" xmlns:xlink="http://www.w3.org/1999/xlink" x="0px" y="0px"
	 viewBox="0 0 147.4 55.9" style="enable-background:new 0 0 147.4 55.9;" xml:space="preserve">
<style type="text/css">
	.st0{fill:#AE2354;}
</style>
<path class="st0" d="M34.6,24c0.2-0.6,0.1-1.3,0.1-1.4c0.1,0.1,0.8,0.6,1.9,0c0.5-0.2,0.7-0.5,0.8-0.8c0.2-0.9-1-2-1-2
	s-0.7-0.5-1.8-0.1c-1.1,0.4-2.1,1.2-5.5,1.2c-3.4,0-6.2-4.2-6.2-4.2s-2.9,1.2-3.6,3.6c-0.2,0.9-0.1,1.9,0.5,3
	c1.6,2.4,3.4,0.5,3.5,0.4c0,0.1-0.1,0.2-0.2,0.5c-0.2,0.8-0.3,2.4,1.8,2.8c1.8,0.4,2.5-0.9,2.7-1.9c0-0.1,0-0.1,0-0.2
	c0.1-0.5,0.1-0.9,0.1-1c0,0.3,0.4,3.4,2.3,2.7c1.1-0.4,1.5-1,1.6-1.5c0.1-0.3,0-0.6,0-0.7c0.1,0.2,0.7,1.5,2.2,0.5
	C34.3,24.7,34.5,24.4,34.6,24z M35.2,22.2c-0.2-0.2-0.3-0.5-0.2-0.7c0.3-0.4,0.5-0.1,0.7,0c0.1-0.3,0.2-0.6-0.1-0.8
	c-0.5-0.3-1.5-0.5-2.1-0.1l-0.2-0.1c0.6-0.2,2-0.8,2.9,0.1c0.3,0.4,0.2,1.1,0,1.4C36.2,22.2,35.8,22.5,35.2,22.2z M38.4,22L38.4,22
	C38.4,22,38.4,22,38.4,22c0,0-0.7-2.8-3.2-3.3c-2-0.4-5,1.7-7.2,1.2c-2.2-0.5-3.6-3.1-3.6-3.1s0,0,0,0c0,0,0,0,0,0s2.3,0.8,3.7-0.2
	c0.8-0.5,1.3-1.2,1.5-1.8c0-0.2,0.1-0.4,0-0.6c-0.2-0.9-0.4-1-0.4-1s0,0,0,0c0,0,0,0,0,0s0.8-0.3,1.6,0.4c0.8,0.7,0.6,2,0.6,2
	s4.1-2,6.7,1.5C39.1,18.5,38.4,22,38.4,22z M27.7,13.9c0.2,0.3,0.2,0.7,0.2,0.8c-0.1,0.6-0.8,1.6-3.6,1.8c-0.4,0,2.5,1.1,4.2-1.2
	c0.5-0.7,0.5-1.5-0.3-2.3c-0.8-0.7-1.5-0.5-2.1,0c-0.6,0.4-0.5,1.2-0.2,1.5c0.2,0.3,1,0.4,1.5,0.1c0,0,0.2-0.5-0.2-1
	C26.9,13.4,27.6,13.6,27.7,13.9z M23.5,15.1c0.2-0.6,1.1-1.1,2-0.5c0.3,0.3,0.3,0.8,0.1,1.1c-0.1,0.2-0.5,0.5-1,0.3
	c-0.2-0.1-0.3-0.4-0.2-0.6c0.2-0.4,0.6,0,0.8,0c0.1-0.3,0.1-0.6-0.2-0.8C24.5,14.4,24,14.7,23.5,15.1z M33.5,13.5
	c-0.5-1.2-1.8-1.2-2.3-0.7c0.7-0.1,1.1,0,1.4,0.6c0.1,0.4,0.2,0.4-0.1,0.6c-0.2-0.1-0.2-0.5-0.7-0.3c-0.2,0.1-0.2,0.4-0.1,0.7
	c0.3,0.5,0.9,0.5,1.1,0.3C33.2,14.5,33.6,14,33.5,13.5z M37.5,16c0.1,0.4-0.3,1.1-1,1.3c-0.7,0.2-1.3-0.1-1.4-0.5
	c-0.1-0.4,0-1.1,0.9-1c0,0,0.5,0.1,0.7,0.8c0,0.1,0.2-0.5,0.1-0.8c-0.1-0.3-0.3-0.5-0.4-0.5c-0.1-0.1-0.9-0.2-1.7,0l0.1-0.4
	c0.5-0.2,1.2-0.3,1.9-0.1C37.5,14.9,37.5,15.9,37.5,16z M34.9,12.9c0.3-0.3,0.9-0.2,0.8-0.1c-0.6,0.4-0.5,1-0.5,1.1
	c0.5,0.7,0.9,0.5,1.2,0.2c0.3-0.3,0.6-0.8,0-1.4C36,12,35.3,12,34.9,12.3c0,0-0.1,0.1-0.2,0.1C34.8,12.6,34.9,12.7,34.9,12.9z
	 M32.2,12.1c-1,0.3-3.4,0.4-3,0.2c0.3-0.2,1.2-0.3,2.5-1.2c0.9-0.6,1.3-1.4,1.3-1.6c0-0.1-0.1-0.4-0.3-0.7c-0.2-0.3-1-0.3-0.9-0.3
	c0.6,0.5,0.5,1.1,0.5,1.1c-0.3,0.6-1.1,0.7-1.5,0.3c-0.4-0.3-0.8-0.9-0.2-1.6c1.2-1.3,2.5-0.6,2.5-0.6c0,0,1.1,0.9,1,1.9
	C34,11,32.8,11.9,32.2,12.1z M40.4,6.9c0.2-0.1,0.9-0.7,1.1-1.5c0.1-0.5,0-1-0.5-1.6c-1.5-1.7-3.2,0-3.3,0c0,0,0.1-0.2,0.1-0.3
	c0.2-0.6,0.3-1.9-1.5-2.3c-1.3-0.4-2,1.1-2.2,2c0,0,0,0,0,0c0,0,0,0.1,0,0.1c0,0.2-0.1,0.3-0.1,0.4C34,3,34.1,0.9,31.2,0.1
	c-1.4-0.4-3.6,0.6-3.6,0.6s0,0,0,0c0,0,0,0,0,0s2.4,1.2,3.2,2.7C31.6,5,31,7.4,31,7.4s0.4-0.3,1.2-0.3c0,0,0,0,0,0.1c0,0,0,0,0,0
	c0,0,0,0,0,0c0.1,0,0.1,0,0.2-0.1c0.1,0,0.2,0,0.4,0c0.6,0,1.2,0.5,1.5,1.3c0.9,0.1,1.9,0.1,2.4,1c0.1,0.2,0.2,0.3,0.2,0.5
	c0,0,0,0.1,0,0.1c0,0,0,0,0,0.1c0,0,0,0,0,0c0,0.1,0,0.2,0,0.3c0,0,0-0.1,0-0.1c0,0.1,0,0.2,0,0.3c0,0,0,0,0,0c0,0,0,0.1,0,0.1
	c-0.1,0.2-0.2,0.5-0.3,0.6c0,0,0,0,0,0c0,0,0,0,0,0c0,0,0,0.1,0.1,0.1c0,0,0,0.1,0,0.1c0,0.1,0,0.2,0.1,0.3c0,0,0,0.1,0,0.1
	c0,0,0,0,0,0c0,0,0,0,0-0.1v0c0,0,0,0,0,0c0-0.1,0.1-0.1,0.1-0.2c0.1,0.1,0.1,0.3,0.1,0.4c0,0,0,0,0,0.1c0,0,0,0,0,0c0,0,0,0,0,0
	c0,0,0,0,0,0c0.1,0.4,0.1,0.7,0.1,1c0,0,0,0,0,0c0,0,0,0,0,0.1c0,0.1,0,0.1-0.1,0.2c-0.5,0.8-1.1,1.2-1.1,1.2s0,0,0,0c0,0,0,0,0,0
	s2.8,1,3.5,3.1c0.4,1.2,0.2,2.3,0,2.9c0,0,0,0,0,0.1c0,0.1-0.1,0.2-0.1,0.2l0,0c0,0,0,0,0,0s2.1-1.3,2.6-3c0.1-0.3,0.1-0.6,0-1
	c-0.4-1.2-1.6-2.9-1.7-3.1c0.2,0.2,2.8,1.7,3.4-0.7c0.1-0.3,0.1-0.6,0.1-0.9c-0.4-1.4-1.5-1.9-1.6-1.9c0.2,0,1.4-0.3,1.6-1.3
	c0.1-0.3,0.1-0.7-0.1-1.2C42.9,5.8,40.7,6.7,40.4,6.9z M30.2,3.7c0.5,1.1,0.6,2,0.4,2.7c-0.5,2-2.8,2.9-3,3c0.1,0.1,1.3,0.5,1.5,1.5
	c0.1,0.3,0.1,0.6,0,0.8c-0.1,0.5-0.4,0.8-0.4,0.8s-0.1-0.2-0.8-0.8c-0.5-0.5-1.7-0.4-2.8,0.2c-1.1,0.6-1.6,2.1-1.8,2.8
	c-0.1,0.2-0.1,0.4-0.1,0.4l0,0c0,0,0,0,0,0s-1.6-2.5-1-4.6c0,0,0,0,0,0c0,0,0,0,0,0c0.6-2.2,3.8-3.9,4.4-5.8c0-0.1,0-0.1,0.1-0.2
	c0.6-2.4-1.4-3.8-1.4-3.8s0,0,0,0c0,0,0,0,0,0S29.5,2.1,30.2,3.7z M6.2,6.7c-1.1-4,0.5-5.6,1.6-6.1C9,0.4,9.2,1.1,9.2,2.5
	c0,0.8-1.2,2-1.9,0.4C7.4,3.1,8.7,3.7,8.7,2c0-0.9-1-1.2-1.6-0.2C6.7,2.3,6.4,3,6.4,3.1C6,4.6,6.1,5.9,6.5,7.1c0,0,0,0,0.1,0
	c0.2,0,0.4,0.2,0.4,0.4c0,0.2,0,0.3-0.1,0.4C6.9,8.2,7,8.5,7.2,8.7c0,0,0,0,0.1,0c0.2,0,0.4,0.2,0.4,0.4c0,0.1,0,0.2,0,0.2
	C7.7,9.5,7.8,9.7,8,9.9C8,9.8,8.1,9.8,8.2,9.8c0.2,0,0.4,0.2,0.4,0.4c0,0.1,0,0.2-0.1,0.3c1,1,3.6,3.4,3,6.8
	c-0.4-0.4-0.4-1.6-0.7-2.7c-0.6-1.8-2-3.4-2.5-3.9c0,0,0,0-0.1,0c-0.2,0-0.4-0.2-0.4-0.4c0,0,0-0.1,0-0.1C7.7,10,7.6,9.8,7.4,9.6
	c0,0-0.1,0-0.1,0c-0.2,0-0.4-0.2-0.4-0.4c0-0.2,0-0.3,0.1-0.4C6.9,8.5,6.8,8.3,6.7,8c0,0-0.1,0-0.1,0c-0.2,0-0.4-0.2-0.4-0.4
	c0-0.2,0.1-0.4,0.2-0.4C6.3,7,6.3,6.9,6.2,6.7z M7.8,14.1c-0.1,0.2,0.1,0.4,0.3,0.5c0.1,0,0.2,0,0.2,0c0.1,0.2,0.3,0.3,0.4,0.5
	c-0.1,0-0.1,0.1-0.1,0.2c-0.1,0.2,0.1,0.4,0.3,0.5c0.1,0,0.2,0,0.3,0c0.7,1.1,1,2.2,0.9,3c0.2-1.3-0.1-2.3-0.6-3.2c0,0,0,0,0-0.1
	c0.1-0.2-0.1-0.4-0.3-0.5c0,0-0.1,0-0.1,0c-0.1-0.2-0.3-0.3-0.4-0.5c0,0,0.1-0.1,0.1-0.1c0.1-0.2-0.1-0.4-0.3-0.5
	c-0.1,0-0.3,0-0.4,0c-0.2-0.2-0.4-0.3-0.6-0.5c0,0,0,0,0-0.1c0.1-0.2-0.1-0.4-0.3-0.5c-0.2-0.1-0.3,0-0.4,0.1
	c-0.1-0.1-0.3-0.2-0.4-0.3c-3.4-2-5.3-0.8-6,0.1c-0.4,1-0.1,1.6,1.3,1.8c1.3,0.2,2.2-0.8,0.9-1.8C2.6,13,3,14.1,1.3,13.9
	c-0.8-0.1-0.9-0.8-0.7-1c0-0.1,0.4-0.4,0.8-0.6C2,12.1,2.8,12,2.8,12c1.4,0,2.7,0.4,3.7,1c0,0,0,0,0,0c-0.1,0.2,0.1,0.4,0.3,0.5
	c0.1,0,0.3,0,0.4,0C7.5,13.7,7.6,13.9,7.8,14.1C7.8,14.1,7.8,14.1,7.8,14.1z M23.8,35.4l-0.2,0.7L23.5,36c-4.5-2.4-10.4-7.3-8-14.5
	c0.8-1.8,2-3.2,2-3.2l0.9,0.2c0,0-1.5,1.5-2.2,2.7c-1,2.4-0.6,4.3-0.4,5.2c-0.2-2.7,0.5-5.6,3.5-7.4l0.4-0.3l-0.2,0.6
	C13.9,22.3,15.2,31.2,23.8,35.4z M14.4,9.8C14.4,9.8,14.4,9.8,14.4,9.8C14.4,9.8,14.4,9.8,14.4,9.8c0.7-2.6,3.5-1.4,4-1.2
	c-0.4-0.3-2-1.4-1.7-2.6c0.1-0.2,0.2-0.5,0.5-0.7c1.4-1.3,2.5-0.6,2.7-0.4c-0.1-0.1-0.4-0.6-0.3-1.2c0.1-0.3,0.3-0.7,0.9-1
	c1-0.6,2.3,0.4,2.4,0.5c0-0.1,0-0.3,0-0.6c0.1-0.3,0.3-0.8,0.9-1.1C25.5,0.2,26.1,3,26.1,3s0.1,0.3-0.1,0.7c-0.1,0.3-0.3,0.7-0.6,1
	C24.6,5.4,23.3,6,21.8,9c-0.1,0.3-0.3,0.6-0.3,0.9c-0.8,2.9,1.2,6.5,1.2,6.5s0,0,0,0c0,0,0,0,0,0s-4.5,3.8-7.3-0.4
	c-0.4-0.7-0.5-1.3-0.4-1.8c0.2-1.1,1.4-1.4,1.6-1.5C16.3,12.8,13.7,12.5,14.4,9.8z M23.5,2.9c0.1,0.2,0.3,0.5,0.5,0.5
	c0.5-0.1,0.3-0.4,0.4-0.6c0.4,0,0.6,0,0.7,0.4c0,0.6-0.3,1.5-0.9,1.9l0,0.2c0.5-0.5,1.6-1.4,1.3-2.6c-0.2-0.5-0.8-0.7-1.2-0.7
	C24,2,23.5,2.3,23.5,2.9z M8.7,29.5c0.3,0.3,2.2,0.4,2.8,0.5c2,0.2,3.8,1.4,3.7,1.3l-2.3-2.2C10.3,27.9,8.3,29,8.7,29.5z M20.7,37
	l-3.9-2.4c-0.1,0-2.4-1-3.1-1c-0.9,0.1-2.7,0.1-2.9,1.1c-0.1,0.4,0,0.7,0.5,1.1c-0.6,0-1.2-1-1.2-1.3c-0.1-1.8,3.6-2.3,5.8-1.3
	L20.7,37z M7.7,32.8c0.4-1.3,2.9-1.1,4.1-1c1,0,6,1.9,5.7,1.7l-2.6-2c-2-1.6-7.5-0.9-7.6,1.5c0,0.3,0.2,1.3,1,1.4
	C7.7,33.8,7.5,33.3,7.7,32.8z M12.9,19.1c0.3,0,1.2,0.2,1.3,0.9c-0.6-0.5-1-0.6-1.4-0.5c-1.2,0.4-0.5,2.1-0.9,2.9
	c-0.3,0.8,0.3,2.4,0.2,2.1l-0.8-1.5C10.4,21.4,10.7,19.1,12.9,19.1z M137.6,41c-0.3,0.1-0.6-0.1-0.7-0.3c0-0.1,0-0.1,0-0.2
	c-0.3-0.1-0.5-0.2-0.8-0.3c0,0-0.1,0-0.2,0.1c-0.3,0.1-0.6-0.1-0.7-0.3c0,0,0-0.1,0-0.1c-0.7-0.4-3.2-1.5-5.5-1.6
	c-1.4,0-2.8,0.4-3.4,0.1c3.8-2,7.5,0.3,9.1,1.2c0.1-0.1,0.2-0.1,0.3-0.2c0.3-0.1,0.6,0.1,0.7,0.3c0,0.1,0,0.2,0,0.3
	c0.2,0.1,0.5,0.2,0.7,0.3c0.1-0.1,0.2-0.1,0.3-0.1c0.3-0.1,0.6,0.1,0.7,0.3c0,0,0,0,0,0.1c0.3,0.1,0.7,0.1,1,0.2
	c0.1-0.1,0.2-0.3,0.4-0.3c0.3-0.1,0.6,0.1,0.7,0.3c0,0,0,0,0,0.1c1.6,0,3.2-0.3,4.8-1.3c0.1-0.1,0.9-0.7,1.4-1.3
	c0.9-1,0.2-2.1-0.8-1.8c-2,0.6-0.8,1.8-0.6,1.9c-2.1-0.2-1.1-2.1-0.2-2.4c1.7-0.5,2.6-0.4,2.7,0.9c-0.2,1.5-1.6,4-6.6,4
	c-0.2,0-0.4,0-0.6,0c-0.1,0.2-0.2,0.3-0.5,0.4c-0.3,0.1-0.6-0.1-0.7-0.3c0,0,0-0.1,0-0.1c-0.3,0-0.7-0.1-1-0.1
	C137.9,40.9,137.7,41,137.6,41z M129.6,39.9c4-0.3,5.4,3.2,5.1,4.5c0.3,0.7,0.6,1.5,1.1,2l-0.9-2.9c-0.1-2,1.7-1.5,2.6-1.2
	c0.9,0.2,2.3-0.8,2.8,0.3c1,1.8-1.2,2.9-1.8,4.3c1.5-0.4,3.4-4,4.4-1.1l0.6,1.2c0.4,4.4-2.9,1.9-4.4,2.9l2.4,1.1
	c3.4,1.1-0.1,2.2-0.1,3.4c-1.8,2.6-2.4-1-3.6-1.6c-0.3,0,0.4,2.5-0.3,3c-1.2,0.9-1.1-0.6-1.9-0.3c-1.1,0.3-2.1,0.4-2.1-0.9
	c0-0.6,0.4-1,0.6-1.9c-0.5,0.4-3,3.2-3.8-0.1l-0.6-1.3c-2.2-3.6,2.5-2,4.2-2.7c-0.2,0.6-0.1,1.2,0.1,1.8c0.1,0.1,0.2,0.3,0.2,0.4
	c0.7,1.1,2.1,1.4,3.3,0.9c0.1-0.1,0.3-0.1,0.4-0.2c1.1-0.7,1.4-2.1,0.9-3.3c-0.1-0.1-0.1-0.3-0.2-0.4c-0.8-1.1-2.1-1.4-3.3-0.9
	c-0.1,0.1-0.3,0.1-0.4,0.2c-0.5,0.3-0.8,0.8-1,1.3c-1.5-0.1-4.4-0.3-3.7-2.3c1.5-0.7,0.4-2,2.1-3.2c1.2-0.3,1.7,0.5,2.2,1.4
	c-0.1-1.1-1-3.5-4.3-3.7c-0.3,0-0.6,0-0.8,0c-0.3,0-0.6,0.1-0.9,0.1c0-0.2-0.1-0.3-0.1-0.5C128.8,40,129.2,39.9,129.6,39.9z
	 M136.7,45.7c0,0-0.1,0.1-0.2,0.1c0,0,0,0.1,0,0.1C136.7,45.8,136.7,45.8,136.7,45.7z M135.3,47.3c-0.9,0.6-1.1,1.7-0.7,2.6
	c0.1,0.1,0.1,0.2,0.2,0.3c0.6,0.9,1.7,1.1,2.6,0.7c0.1-0.1,0.2-0.1,0.3-0.2c0.9-0.6,1.1-1.7,0.7-2.6c-0.1-0.1-0.1-0.2-0.2-0.3
	c-0.6-0.9-1.7-1.1-2.6-0.7C135.5,47.2,135.4,47.3,135.3,47.3z M136.3,50c0.2-0.2,0.5-0.1,0.7,0.1c0.2,0.2,0.1,0.5-0.1,0.7
	c-0.2,0.2-0.5,0.1-0.7-0.1C136,50.5,136.1,50.2,136.3,50z M137.4,49.2c0.2,0.3,0.2,0.6,0.1,0.9c0-0.1-0.1-0.1-0.1-0.2
	c-0.3-0.4-0.9-0.6-1.4-0.2c-0.2,0.1-0.3,0.3-0.3,0.4c-0.2-0.4,0-0.9,0.3-1.2C136.4,48.6,137.1,48.7,137.4,49.2z M136.6,45.8
	c0,0,0,0.1,0,0.1c0-0.1,0.1-0.1,0.1-0.2C136.7,45.7,136.6,45.7,136.6,45.8z M114.5,32.8c4.6-2.4,5.8-4.6,5.8-4.6s4.7-6.8,0.3-8.6
	c-3.4-0.6-3.6,1.7-3.6,1.7s0,1.8,1.1,1.9c1.1,0.2-1.2-0.3-1.2,1.5c0,0.8,0.4,1.6,1.4,1.8c1.3,0.2,1.8-1,1.8-1s0.3-0.9-0.3-1
	c-0.6-0.1-0.7,0.3-0.7,0.3l0.1,0.3c0,0,0-0.3,0.3-0.4c0.3-0.1,0.2,0.3,0.2,0.3s-0.5,0.9-1.1,0.2c-0.5-0.6,0.1-1,0.1-1
	s0.6-0.6,1.2-0.1c1.7,1.3-0.9,4.8-0.9,4.8s0.3-1.5-0.5-1.9c-1.1-0.6-1.9,0-2.2,0.3c-0.2,0.3-1,1.7,0.1,2.2c1.1,0.4,0.9-1,0.9-1
	s0,0.6-0.5,0.5c-0.5-0.1-0.2-0.7-0.2-0.7s0.4-0.4,1,0.1C118.7,29.3,114,32.8,114.5,32.8z M120.7,24.1c-0.4-0.7-0.7-0.5-1-0.9
	c-0.4-0.4-0.3-0.9,0.1-1.2c0.4-0.4,1.5-0.4,1.9,0.9c0.5,1.4-0.9,3.7-0.9,3.7S121.1,24.8,120.7,24.1z M129.6,34.2c-0.2,0-0.4,0-0.6,0
	c0,0,0,0-0.1,0l-3-0.6l0,0c0.2,0,3.3,0.4,4.3-0.5c0.5-0.4,1.3-1.3,0.7-2.2c-0.2-0.3-0.9-1.3-2-1.3c0.4,0,1.5-0.4,2.5,0.4
	C133.7,31.6,132,34.1,129.6,34.2C129.6,34.2,129.6,34.2,129.6,34.2z M124.9,25.5c1-0.7,1.9,0,2.1,0.3c1.6,2.3-1.1,5.2-3.8,6.2
	l-2.7,0.9c-0.5,0.2,3.4-1.4,4.5-2.5c1.2-1.2,2-2.4,1.6-4.1C126.5,25.7,126,25.5,124.9,25.5z M123.1,26.4c0.8-0.6,1.6,0,1.8,0.3
	c1.4,1.9-0.9,4.4-3.2,5.2l-2.3,0.8c-0.4,0.1,2.9-1.2,3.8-2.1c1-1,1.7-2.1,1.3-3.4C124.5,26.6,124.1,26.3,123.1,26.4z M131.2,35.1
	c-0.1-0.2-0.3-0.3-0.5-0.4c0.6,0,1.2-0.1,1.5-0.4c0.9-0.8,2.7-0.9,2.6-2.6c0-0.6-0.4-1.1-1.3-1.7c0.9-0.1,1.5,0.9,1.7,1.4
	C136.1,34.2,133.5,35.5,131.2,35.1z M127.3,32.1c0.5-0.4,1.6-1,1-1.9c-0.2-0.3,0.1-0.1-0.5-0.3c0.4-0.2,0.3-0.1,0.6,0.1
	c2.2,1.2,1.4,2.6-1.9,2.9l-2.3,0.1C123.9,32.9,126.9,32.4,127.3,32.1z M110.6,25.6c1-0.6,2.1-0.1,2.5,0.2c2.4,2,0.6,4.9-2.2,5.8
	l-2.7,1.3c1.1-0.8,3.5-2.4,3.9-3.2c0.6-1.3,1.5-1.9,0.6-3.3C112.4,25.7,111.9,25.5,110.6,25.6z M107.4,25.2c0.8-0.8,2-0.2,2.4,0.1
	c2.6,2.2,0.9,5.5-1.6,6.7l-2.5,1.2c-0.5,0.2,2.7-1.5,3-2.8c0.4-1.5,2-2.8,0.9-4.5C109.2,25.3,108.6,25.1,107.4,25.2z M103.5,33.3
	L103.5,33.3c1.1-1.1,2.7-2.6,3.3-4.4c0.4-1.3-1.2-1.6-1.2-1.6s-1-0.1-1.3,0.7c-0.3,0.7-0.4,0.9,0.1,1.5c0.3,0.3,0.8,0.3,1.1-0.4
	c0.3-0.7-0.3-1-0.3-1s1.1,0.4,0.8,1.4c-0.2,0.5-1.3,1.4-2,1c-0.7-0.5-1.7-1.1-1.5-2.6c0.3-3.5,7.3-3.3,5.8,1.3
	c-0.7,2-2.2,3.1-4.3,4.2L103.5,33.3z"/>
<path d="M35.5,45.7c-2.5-7.8-3.6-14-3.6-14h1.7v-0.8h-6.6v0.9h2v1.4l-4,12.5h-2.2c0,0-0.4,0-0.4,0.6c0,0.6,0.8,2.2,0.9,2.5
	c0.1,0.3,0.2,2.2,0.7,2.2c0.6,0,0.8-1.4,0.8-1.4c0.3-2.5,2.2-2.8,2.2-2.8s4.8,0,6.5,0c1.7,0,2.7,3.4,2.7,3.4s0.1,0.8,0.5,0.8
	c0.3,0,0.5-0.7,0.5-0.7l0.1-1.7l1-2.3l-0.2-0.6H35.5z M26,45.8l3.4-11l2.8,11H26z M42.5,34.8c0,0-4.9,2.7-4.9,6.4s4.2,5,4.9,6.1
	c0,0,5.1-3.3,5.1-6.3C47.6,38.1,44.6,36.4,42.5,34.8z M45.7,42.8c-0.3,1.7-1.9,2.4-1.9,2.4c-0.3-1.4-3.6-3.3-4.3-5.4
	c-0.5-1.6,1.6-2.8,1.6-2.8C42.3,38.8,46,41.1,45.7,42.8z M76.6,34.8c0,0-4.9,2.7-4.9,6.4s4.2,5,4.9,6.1c0,0,5.1-3.3,5.1-6.3
	C81.7,38.2,78.6,36.4,76.6,34.8z M79.8,42.8c-0.3,1.7-1.9,2.4-1.9,2.4c-0.3-1.4-3.6-3.3-4.3-5.4c-0.5-1.6,1.6-2.8,1.6-2.8
	C76.4,38.9,80.1,41.1,79.8,42.8z M56.9,39.7c0.5,0,0.5-0.9,0.9-2c0.3-0.9,1-1.3,1-1.8c0-0.5-0.7-0.7-0.7-0.7l-8.8,0v11.4h8.5
	c0,0,1-0.1,1-1c0-0.9,0-3.2,0-3.2s0.1-1.5-0.9-1.5c-1,0-5.5-0.6-5.5-1.7c0-1.1,0-3.2,0-3.2h1.7c0,0,2.4,0,2.4,2.4
	C56.5,38.6,56.5,39.7,56.9,39.7z M54.3,41.3c1.7,0.3,1.6,1.9,1.6,1.9v2.7h-3.4v-5.2C52.4,40.6,52.6,41,54.3,41.3z M65.6,34.8
	c-1.8,0-4.6,3.5-4.6,4.7V52c0,0-0.3,1.4-0.6,1.4c0.2,0,1.3,0,1.3,0s2.1-0.4,2.1-4c0-3,0-3.4,0-3.4c0,0,0,0,0,0s0,0,0,0L64,46
	c0,0,1,1.3,2,1.3c1.1,0,3.8-1.6,3.8-4.6C69.8,39.7,67.4,34.8,65.6,34.8z M65.8,46.3c-1.2,0-1.9-2.2-1.9-2.2v-7.1c0,0,0-0.5,0.6-0.5
	c0.6,0,3.2,4.9,3.2,7.6C67.6,45,67,46.3,65.8,46.3z M92,45.9l-3.3-10.6h-3.2l0.5,2.1L83,45.8h-1.8v0.3v0.6l0.5,1.9l0.5,1.5
	c0,0,0.1,0.7,0.5,0.7c0.4,0,0.4-0.7,0.4-0.7s0.7-3.3,1.9-3.3c1.2,0,4.6,0,4.6,0s1,0.4,1.4,1.4c0.4,1,0.7,2.1,0.7,2.1
	s0.5,1.4,0.9-0.1c0.4-1.5,0.9-3,1.1-3.3v-0.6l-0.3-0.4H92z M83.9,45.8l2.6-7.1l2.4,7.1H83.9z M102.1,35.3h-2.9l0.1,1.4
	c-4,4.5-4.1,8.5-4.1,9.1c0,0.6,0.4,1,0.4,1h3.1c0.5-0.1,0.9-1.4,1.3-2.2c0.4-0.8,0.9-0.9,0.9-0.9l0.7,2.9h2.8l-2.3-10.6V35.3z
	 M100.1,43.3c-0.4,0.7-1.3,0.9-2.4,0.9c-0.5,0-1.1-0.5-0.6-2.2c0.5-1.7,2.7-4,2.7-4S100.6,42.5,100.1,43.3z M123.6,36.2v-0.7h-2.9
	l0.1,1.4c-4,4.5-4.1,8.5-4.1,9.1c0,0.6,0.4,1,0.4,1h3.1c0.5-0.1,0.9-1.4,1.3-2.2c0.4-0.8,1-0.9,1-0.9l0.7,2.9h2.8L123.6,36.2z
	 M121.6,43.4c-0.4,0.7-1.3,0.9-2.4,0.9c-0.5,0-1.1-0.5-0.6-2.2c0.6-1.7,2.7-4,2.7-4S122.1,42.6,121.6,43.4z M111.7,41.5L111.7,41.5
	C112.1,41.5,111.7,41.5,111.7,41.5z M111.6,41.1l-0.4,0.4c0.4,0,0,0,0,0l0,0c-0.2,0-0.5,0-1,0c-1.8,0-1.8-1.8-1.8-1.8v-4.4h-3
	c0,0,0,2.1,0,4.5c0,2.4,4,2.7,4,2.7h2.2v4.3h3V35.3h-3V41.1z"/>
</svg>
