<?xml version="1.0" encoding="utf-8"?>
<!-- Generator: Adobe Illustrator 20.1.0, SVG Export Plug-In . SVG Version: 6.00 Build 0)  -->
<svg version="1.1" id="Layer_1" xmlns="http://www.w3.org/2000/svg" xmlns:xlink="http://www.w3.org/1999/xlink" x="0px" y="0px"
	 viewBox="0 0 1294 268" enable-background="new 0 0 1294 268" xml:space="preserve">
<g>
	<path fill="#163854" d="M411.3,183.5v-45.1c0-3.6-0.4-5.7-1.3-6.6c-0.8-0.8-3-1.3-6.6-1.3h-5.2v-1.3h38.6c11.8,0,21.3,3,28.6,9
		c7.2,6,10.8,14,10.8,23.8c0,8.9-3,16.2-8.9,22.1c-5.9,5.8-13.4,9.1-22.5,9.9l-3,0.1v0.9c3.4,0.4,6.5,1.5,9.5,3.4
		c3,1.9,5.3,4.1,7,6.8l7.4,11.7C472.1,227,477,232,480.2,232c1.5,0,2.9-0.5,4.3-1.6l3.3-2.8l0.7,1l-3.3,2.8
		c-4.4,3.7-8.5,5.6-12.3,5.6c-1.8,0-3.5-0.4-5.1-1.1c-1.6-0.7-3.2-1.9-4.7-3.6c-1.5-1.7-2.8-3.2-3.8-4.5c-1-1.3-2.2-3.2-3.7-5.5
		l-10.4-16c-2.8-4.2-5.1-7.2-7.1-8.9c-2-1.7-4.5-2.5-7.5-2.5h-7.8v31.5c0,3.5,0.4,5.7,1.3,6.6c0.9,0.8,3.1,1.3,6.7,1.3h8.6v1.3
		h-41.1v-1.3h5.2c3.6,0,5.7-0.4,6.6-1.3c0.8-0.8,1.3-3,1.3-6.6v-31.5h-19.8v29h-7.3c-1.5,0-2.9,0.7-4.3,2.1
		c-6.7,7.2-15.5,10.8-26.3,10.8c-15.5,0-28-5-37.4-15c-9.5-10-14.2-23.3-14.2-39.7c0-16.2,4.7-29.2,14-39.1
		c9.3-9.9,21.6-14.9,36.8-14.9c10.7,0,19.7,3.1,27.1,9.3c0.7,0.6,1.2,1.5,1.6,2.8l0.6-0.2c-0.3-1.2-0.4-2.3-0.4-3.4l-0.7-14.4
		l1.5-0.1l2.1,41.1l-2.5,0.1l-0.3-5.3c-0.5-8.3-3.7-14.9-9.6-19.9c-5.9-5-12.8-7.5-20.7-7.5c-11.8,0-20.9,4.2-27.1,12.6
		c-6.2,8.4-9.3,20.5-9.3,36.4c0,17.7,3.3,31.2,10.1,40.5c6.7,9.3,16.5,14,29.3,14c11.1-0.2,19.7-4.2,25.6-12.1v-13.2
		c0-4.1-1.3-7.5-3.8-10c-2.5-2.5-5.8-3.8-10-3.8h-17.2v-2.7h86.9c9,0,15.8-2.6,20.6-7.8c4.7-5.2,7.1-12.7,7.1-22.6
		c0-9.8-2.4-17.2-7.1-22.4c-4.7-5.2-11.6-7.8-20.6-7.8h-15.4v0.2c1.7,1.7,2.5,4.2,2.5,7.7v43.8H411.3z"/>
	<path fill="#163854" d="M547.1,205.1h-1.3V197c0-6.4-1.4-10.7-4.2-12.7c-2.8-2.1-6.7-3.1-11.8-3.1h-5.9v44c0,3-1.1,5.5-3.3,7.7v0.1
		H550c7.2,0,12.6-1.6,16.1-4.7c3.5-3.2,5.5-8.2,6-15.2l0.9-11.8h2.4l-2.5,40.1l-1.3-0.2l0.4-6.8h-0.1c-0.9,0.9-2.7,1.3-5.5,1.3h-67
		v-1.3h5.2c3.6,0,5.7-0.4,6.6-1.3c0.8-0.8,1.3-3,1.3-6.6v-88.1c0-3.6-0.4-5.7-1.3-6.6c-0.8-0.8-3-1.3-6.6-1.3h-5.2v-1.3h59.1
		c2.8,0,4.6,0.5,5.5,1.3h0.1l-0.4-6.8l1.3-0.1l2.7,40.1h-2.7l-0.6-10.4c-0.4-7.8-2.4-13.3-6.1-16.6c-3.7-3.3-9.2-4.9-16.7-4.9h-20.9
		v0.2c2.2,2.2,3.3,4.7,3.3,7.7v38.8h5.9c5.1,0,9.1-1,11.8-3c2.8-2,4.1-6.2,4.1-12.7v-5.2h1.3V205.1z"/>
	<path fill="#163854" d="M591.8,235.6v-1.3h2.4c2.8,0,5.5-3.1,8.1-9.2l41.6-95.9h11.4v1.8c0,3.6,0.5,6.4,1.3,8.6l34.9,85.5
		c1.6,3.8,2.9,6.3,3.8,7.5c1,1.1,2.6,1.7,4.9,1.7h1.2v1.3h-28.3v-1.3h11.4V234c-1.4-0.5-2.9-2.8-4.6-7l-8.3-20.3h-58.6l-8,18.4
		c-0.5,1.2-0.7,2.3-0.7,3.4c0,1.7,0.6,3.1,1.9,4.1c1.3,1.1,3,1.6,5.2,1.6h7.3v1.3H591.8z M614.3,204.1h56.4l-25.2-61.7
		c-0.8-1.8-1.2-3.7-1.2-5.9H643c0,1.2-0.6,3.2-1.8,5.9L614.3,204.1z"/>
	<path fill="#163854" d="M710.5,235.6v-1.3h11.2c3.6,0,5.7-0.4,6.6-1.3c0.8-0.8,1.3-3,1.3-6.6v-94.6h-8.9c-7.4,0-12.5,1.1-15.2,3.3
		c-2.8,2.2-4.3,6.8-4.7,13.7l-0.4,6.1l-2.7-0.1l2.2-34.3l1.6,0.2l-0.7,8.6h69l-0.7-8.4l1.6-0.1l2.2,34.2l-2.7,0.1l-0.4-6.1
		c-0.5-6.9-2.1-11.5-4.9-13.7c-2.8-2.2-7.8-3.3-15.1-3.3h-8.6v94.6c0,3.5,0.4,5.7,1.3,6.6c0.8,0.8,3,1.3,6.6,1.3H760v1.3H710.5z"/>
	<path fill="#163854" d="M840.6,180.8c0-16.2,4.7-29.2,14.2-39.2c9.5-9.9,21.9-14.9,37.4-14.9c10.6,0,19.7,3.2,27.1,9.5
		c0.7,0.7,1.2,1.7,1.6,3l1-0.3c-0.2-1-0.4-2.4-0.4-4.3l-0.3-10.8h1.3l1.3,42.8l-2.7,0.1l-0.4-13.8c-0.4-6.5-3.6-12.1-9.5-16.7
		c-6-4.6-12.7-7-20.2-7c-12.1,0-21.4,4.2-27.7,12.6c-6.4,8.4-9.5,20.6-9.5,36.6c0,17.7,3.3,31.1,10,40.5c6.7,9.3,16.3,14,28.9,14
		c7.2,0,13.9-1.8,20-5.5c6.1-3.6,10.4-8.6,12.9-14.8l2.5,1c-2.8,7.1-7.4,12.5-13.8,16.3c-6.5,3.7-13.7,5.6-21.8,5.6
		c-15.5,0-28-5-37.5-15.1C845.3,210.4,840.6,197.2,840.6,180.8"/>
	<path fill="#163854" d="M941.9,234.4V233h5.2c3.6,0,5.8-0.4,6.6-1.3c0.8-0.8,1.3-3,1.3-6.6v-88c0-3.6-0.4-5.7-1.3-6.6
		c-0.8-0.8-3-1.3-6.6-1.3h-5.2V128h38.6c11.8,0,21.4,3,28.6,9c7.2,6,10.8,14,10.8,23.8c0,8.9-3,16.2-8.9,22.1
		c-5.9,5.8-13.4,9.1-22.5,9.9l-3,0.1v0.9c7.1,0.8,12.6,4.2,16.4,10.2l7.4,11.7c6.4,10.1,11.2,15.1,14.5,15.1c1.5,0,2.9-0.5,4.3-1.6
		l3.3-2.8l0.7,1l-3.2,2.8c-4.4,3.7-8.5,5.6-12.3,5.6c-1.8,0-3.5-0.4-5.1-1.1c-1.6-0.7-3.2-2-4.7-3.6c-1.5-1.7-2.8-3.2-3.8-4.5
		c-1-1.3-2.2-3.2-3.7-5.5l-10.4-16c-2.8-4.2-5.1-7.2-7.1-8.9c-2-1.7-4.5-2.5-7.6-2.5h-1.8v-2.5h6.8c9,0,15.8-2.6,20.6-7.8
		c4.7-5.2,7.1-12.7,7.1-22.6c0-9.8-2.4-17.2-7.1-22.4c-4.7-5.2-11.6-7.8-20.6-7.8H964v0.1c1.7,1.7,2.5,4.2,2.5,7.7v86.7
		c0,3.6,0.5,5.7,1.3,6.6c0.9,0.8,3.1,1.3,6.7,1.3h8.6v1.3H941.9z"/>
	<path fill="#163854" d="M1093.2,203.9h-1.3v-8.1c0-6.4-1.4-10.7-4.2-12.7c-2.8-2.1-6.7-3.1-11.8-3.1h-5.9v44c0,3-1.1,5.5-3.3,7.7
		v0.1h29.5c7.2,0,12.6-1.6,16.1-4.7c3.5-3.2,5.5-8.2,6-15.2l0.9-11.8h2.4L1119,240l-1.3-0.2l0.4-6.8h-0.1c-0.9,0.9-2.7,1.3-5.5,1.3
		h-67V233h5.2c3.5,0,5.7-0.4,6.6-1.3c0.8-0.8,1.3-3,1.3-6.6v-88c0-3.6-0.4-5.7-1.3-6.6c-0.8-0.8-3-1.3-6.6-1.3h-5.2V128h59
		c2.8,0,4.6,0.4,5.5,1.3h0.1l-0.4-6.8l1.3-0.1l2.7,40.1h-2.7l-0.6-10.4c-0.4-7.8-2.4-13.3-6.1-16.6c-3.7-3.2-9.2-4.9-16.6-4.9h-20.9
		v0.1c2.2,2.2,3.3,4.7,3.3,7.7v38.8h5.9c5.1,0,9.1-1,11.8-3c2.8-2,4.2-6.2,4.2-12.7v-5.2h1.3V203.9z"/>
	<path fill="#163854" d="M1130.4,128h21.3v2.1c0,1.9,0.3,4,1,6.4l30.6,82.4c0.6,1.8,0.9,3.6,0.9,5.3h1.5c0-1.3,0.3-3.1,1-5.3
		l21.2-70.4l-3-9.9c-1.1-3.7-2.2-6.1-3.3-7.3c-1.1-1.2-2.9-1.8-5.5-1.8h-3.4V128h33.1v1.3H1212v0.3c2,0.7,3.5,3,4.6,6.8l24.7,82.4
		c0.6,2.4,0.9,4.1,0.9,5.3h2.1c0-1.5,0.4-3.4,1.3-5.8l29.2-80.1c0.7-1.8,1-3.2,1-4.3c0-3.2-2.5-4.7-7.4-4.7h-5.6V128h25.2v1.3h-2.2
		c-2.2,0-3.8,0.7-4.8,2c-1,1.3-2.1,3.7-3.3,7.2l-35.1,96.5l-8.3,0.7l-24.9-82.6l-24.6,82l-8.3,0.6l-35.2-97.2
		c-1.2-3.9-2.3-6.3-3.3-7.5c-1-1.1-2.8-1.7-5.3-1.7h-2.2V128z"/>
</g>
<g>
	<g>
		<defs>
			<rect id="SVGID_1_" x="-30.7" y="-29.8" width="327" height="328.4"/>
		</defs>
		<clipPath id="SVGID_2_">
			<use xlink:href="#SVGID_1_"  overflow="visible"/>
		</clipPath>
		<g clip-path="url(#SVGID_2_)">
			<defs>
				<rect id="SVGID_3_" x="-30.7" y="-29.8" width="327" height="328.4"/>
			</defs>
			<clipPath id="SVGID_4_">
				<use xlink:href="#SVGID_3_"  overflow="visible"/>
			</clipPath>
			<path clip-path="url(#SVGID_4_)" fill="none" stroke="#163854" stroke-width="4" stroke-miterlimit="10" d="M78.1,131.2
				c4.9,2.8,15.4,3.9,19.5,4.2c7,0.5,9.9,0,13.9,2.6c6.8,4.5,8.7,13.5,8.3,20.6c-0.6,10.6-3.4,26.7-1.4,37.3
				c0.8,4.1,2.1,6.6,6.5,6.9c3.6,0.3,7.2-0.6,10.8-0.2"/>
			<path clip-path="url(#SVGID_4_)" fill="none" stroke="#163854" stroke-width="4" stroke-miterlimit="10" d="M110.9,159
				c-1.2-1.4-2.8-2.3-4.4-3c-8.4-3.7-18.8-2.4-26.1,3.1"/>
			<path clip-path="url(#SVGID_4_)" fill="none" stroke="#163854" stroke-width="4" stroke-miterlimit="10" d="M136.6,159
				c1.2-1.4,2.8-2.3,4.4-3c8.4-3.7,18.8-2.4,26.1,3.1"/>
			<path clip-path="url(#SVGID_4_)" fill="none" stroke="#163854" stroke-width="4" stroke-miterlimit="10" d="M111.7,218.3
				c10.6-0.2,21.1-0.4,31.7-0.6"/>
			
				<line clip-path="url(#SVGID_4_)" fill="none" stroke="#163854" stroke-width="4" stroke-miterlimit="10" x1="121.5" y1="226.6" x2="132.6" y2="226.6"/>
			<path clip-path="url(#SVGID_4_)" fill="none" stroke="#163854" stroke-width="4" stroke-miterlimit="10" d="M31.1,132.7
				c-6.6,17.8-12.1,32.9-14.4,39.9c-1.1,3.4-1.9,7.2,1.1,9.6c2.7,2.3,7.9,3.4,13.3,4.1c-0.1,4.8-2.1,10.3,3.6,13.2
				c0.7,0.7,0.7,1.4,0.7,2.2c-0.7,1.4-2.2,2.9-1.4,5s2.9,2.9,2.9,5c0,5.8-0.9,9.7,2.4,12.9c2,1.9,5.1,2.1,9.5,1.9
				c7-0.2,18.7-2.1,31.6-6"/>
			<path clip-path="url(#SVGID_4_)" fill="none" stroke="#163854" stroke-width="4" stroke-miterlimit="10" d="M214.3,161.2
				c-7.6,0.6-20.9-1.6-18-3.9c4.1-3.3,9.3-5.9,17.6-7.1"/>
			<path clip-path="url(#SVGID_4_)" fill="none" stroke="#163854" stroke-width="4" stroke-miterlimit="10" d="M211.2,160.5
				c0.9-3.3,0.6-7-0.8-10.1"/>
			<path clip-path="url(#SVGID_4_)" fill="none" stroke="#163854" stroke-width="4" stroke-miterlimit="10" d="M220.5,131.2
				c5.2,16.3,15.5,38.4,15.4,45.8c0,8-6.4,7.2-11.9,8.2c-5.3,0.9-3.3,3.5-3.2,9.7c0.1,4-2.9,4.8-3.3,6.3c-0.5,2.2,2.5,3.7-0.4,7.2
				c-3.6,4.5-1.4,10.7-4.4,15.6c-1.5,2.3-4,2.7-8.1,2.6c-9.1-0.1-17.7-1.6-31.9-5.6"/>
			<path clip-path="url(#SVGID_4_)" fill="none" stroke="#163854" stroke-width="4" stroke-miterlimit="10" d="M164,48.9
				c-4.8,4.2-12.6,0.4-13.3-5.6c-0.8-6.7,5.7-12.6,12.2-12.2c6.9,0.4,12.1,7.2,12.4,13.8c0.3,7.1-4.8,13.4-11.2,15.8
				c-11.8,4.5-24.9-4.4-27.6-16.2c-1.7-7.4,1-15.3,6.1-20.8c5.3-5.6,12.4-8.6,20.1-8.5c15.6,0.1,26.6,10.8,30.8,23.2
				c2.5,7.2,3.9,19,1.7,35.2"/>
			<path clip-path="url(#SVGID_4_)" fill="none" stroke="#163854" stroke-width="4" stroke-miterlimit="10" d="M54.3,107.6
				c-4.9-10-15.9-14-25.5-11.7c-6.7,1.6-10.9,6.3-12.6,12.1c-3.6,12.3,11,24.7,21,15.5c4.7-4.4,4.2-11.8-1.2-15.5"/>
			<path clip-path="url(#SVGID_4_)" fill="none" stroke="#163854" stroke-width="4" stroke-miterlimit="10" d="M78.1,201
				c0,0-0.2,16.2,3,20.2c4.2,5.3,23.2,16.7,23.2,16.7c18,12.3,21,11.4,23.9,11.4c3.7,0,9.2-1.4,20.6-9.7c0,0,16.6-10.8,24.1-18.6
				c2.5-2.6,4.2-14.2,4.2-20"/>
			<path clip-path="url(#SVGID_4_)" fill="none" stroke="#163854" stroke-width="4" stroke-miterlimit="10" d="M71.7,93.2
				c-1-0.2-2-0.6-2.9-1.2c-3.8-2.5-4.7-7.8-2.9-11.7c1.9-4.1,6.5-6.3,10.9-6c9.6,0.6,14.1,11.3,10.8,19.6
				c-3.5,8.5-13.8,11.8-22.1,9.1c-8.7-2.9-13.8-11.6-13.8-20.5c0-6.3,1.5-13.8,7.3-21.2"/>
			<path clip-path="url(#SVGID_4_)" fill="none" stroke="#163854" stroke-width="4" stroke-miterlimit="10" d="M146.1,87.4
				c0-11.8-12.5-28.8-24.5-35.6c-13.4-7.6-31-9.4-45.2-3.6c-7.7,3.2-14.6,8.2-19.6,16.1"/>
			<path clip-path="url(#SVGID_4_)" fill="none" stroke="#163854" stroke-width="4" stroke-miterlimit="10" d="M234.1,104.2
				c-9.7,7.8-22.3,0.3-22-11c0.2-10,10.2-16.8,19.7-16c10,0.9,17.6,9.6,18.6,19.3c2.3,22.3-22.6,31.4-41.5,26.1"/>
			<path clip-path="url(#SVGID_4_)" fill="none" stroke="#163854" stroke-width="4" stroke-miterlimit="10" d="M188.4,102.2
				c-4-1.4-6.1-5.8-4.9-9.8c1.3-4,5.3-6.6,9.4-6.8c8.4-0.2,14,8.6,11.2,16.3c-2.6,7.2-10.8,11.4-18.1,10.2
				c-8.5-1.4-14.2-9-14.3-17.4c-0.2-10.1,8.3-24.4,11.8-33.5"/>
			<path clip-path="url(#SVGID_4_)" fill="none" stroke="#163854" stroke-width="4" stroke-miterlimit="10" d="M161.5,77.2
				c-0.9,14.9-7.4,29.8-20.9,37.3c-12,6.7-27.8,5.8-37.5-4.7C91.3,97,95.6,73.4,114.4,70.3c8.8-1.4,17.7,3.3,20.3,12.1
				c2.4,8.1-1.9,17.1-10.5,18.7c-7.2,1.4-14.5-4.2-13.8-11.8c0.8-8.4,14.1-11.5,15.9-2c0.4,1.8-0.2,3.8-1.6,5.1"/>
			<path clip-path="url(#SVGID_4_)" fill="none" stroke="#163854" stroke-width="4" stroke-miterlimit="10" d="M38.5,161.5
				c7.6,0.4,20.8-2,17.9-4.3c-4.2-3.3-9.5-5.7-17.7-6.8"/>
			<path clip-path="url(#SVGID_4_)" fill="none" stroke="#163854" stroke-width="4" stroke-miterlimit="10" d="M41.7,160.9
				c-1.1-3.3-1-6.9,0.2-10.1"/>
			<path clip-path="url(#SVGID_4_)" fill="none" stroke="#163854" stroke-width="4" stroke-miterlimit="10" d="M142.4,159.5
				c1.1,3.7,9.4,3.6,9.4,3.6s8.5,0.1,9.5-3.6"/>
			<path clip-path="url(#SVGID_4_)" fill="none" stroke="#163854" stroke-width="4" stroke-miterlimit="10" d="M86.5,159.5
				c1.1,3.7,9.4,3.6,9.4,3.6s8.5,0.1,9.5-3.6"/>
			<path clip-path="url(#SVGID_4_)" fill="#163854" d="M19.2,134.3c-5.6,12.9-10.1,26.4-14.1,39.9c-1.3,4.2-2.1,9.1,0.4,13.1
				c2.5,4,7.4,5.3,11.6,6.9c3.3,1.2,4.2,2.2,5.2,5.5c0.6,1.9,0.9,3.8,1.2,5.8c0.9,4.7,1.7,9.3,2.6,14c1.3,6.4,2,15,9.2,17.3
				c6,2,13.8,0.4,19.9-0.2c7.8-0.8,15.6-2.2,23.2-4.1c1.8-0.4,1-3.2-0.8-2.8c-12,2.9-24.6,5-37,4.9c-5.4,0-8.5-2.2-9.9-7.3
				c-0.9-3-1.4-6-2-9c-0.8-4.3-1.6-8.5-2.4-12.8c-0.6-3.4-1.1-6.9-2.6-10.1c-1.9-3.8-7.6-4.3-11.1-5.9c-5-2.4-6.7-6.2-5.6-11.6
				c1.4-7,4.3-13.9,6.5-20.7c2.4-7.2,5.1-14.3,8.1-21.3C22.4,134.1,19.9,132.6,19.2,134.3"/>
			<path clip-path="url(#SVGID_4_)" fill="#163854" d="M230,133.4c4.7,12.6,9.3,25.3,13.2,38.2c2.1,6.8,4.2,14.1-3.7,17.9
				c-2.8,1.3-6.4,1.2-8.8,3.2c-3.4,2.8-3.6,8.3-4.3,12.3c-0.9,4.9-2,9.7-3.1,14.6c-0.6,2.7-1.3,5.3-2.2,7.9
				c-0.8,2.1-1.7,5.1-3.8,6.2c-2.1,1.1-5.7,0.8-8,0.8c-10.8,0.2-22.3-1.7-32.9-4c-1.8-0.4-2.6,2.4-0.8,2.8c10.4,2.3,21.4,3.8,32,4.1
				c3.6,0.1,9.5,0.5,12.4-2.1c3.1-2.8,4.4-8.3,5.4-12.1c0.9-3.3,1.5-6.8,2.3-10.1c1.1-4.9,1.4-10.4,3.2-15.1
				c1.2-3.4,3.7-3.9,6.9-4.7c1.3-0.3,2.5-0.8,3.8-1.4c5.3-2.7,7.4-7.4,6.5-13.2c-1.3-8.3-4.7-16.4-7.4-24.2
				c-2.4-7.3-5.1-14.5-7.8-21.7C232.2,131,229.4,131.7,230,133.4"/>
			<path clip-path="url(#SVGID_4_)" fill="#163854" d="M21.2,133.8c-11.5-5.1-17.6-16.8-14-29.1c4.4-14.9,19.9-20.3,33.9-16.2
				c1.8,0.5,2.5-2.2,0.8-2.8c-15.2-4.5-31.8,1.5-37.1,17.2c-4.6,13.6,2,27.6,15,33.3C21.4,137,22.9,134.6,21.2,133.8"/>
			<path clip-path="url(#SVGID_4_)" fill="#163854" d="M42.8,86.7c-2.7-19.6,8.7-36.9,26.2-45c17.3-7.9,38.4-7.4,55.2,1.6
				c1.6,0.9,3.1-1.6,1.5-2.5c-18.1-9.7-40.7-10-59.1-1.1c-18.3,8.8-29.3,27.4-26.5,47.7C40.3,89.3,43.1,88.6,42.8,86.7"/>
			<path clip-path="url(#SVGID_4_)" fill="#163854" d="M77.1,232c13.4,11,28,21.4,43.9,28.5c8.9,4,17.1-0.5,24.9-5.2
				c11-6.6,21.3-14.2,31.1-22.5c1.4-1.2-0.6-3.2-2-2c-8.4,7.1-17.1,13.7-26.5,19.6c-5.3,3.3-11.4,7.8-17.8,8.8
				c-2.7,0.4-5.2,0.1-7.8-0.9c-6.8-2.8-13.5-6.7-19.7-10.7c-8.4-5.3-16.4-11.3-24.1-17.6C77.7,228.8,75.7,230.8,77.1,232"/>
			<path clip-path="url(#SVGID_4_)" fill="#163854" d="M126.4,42.1c0.5-9.7,3.7-19.3,11-26c6.4-5.9,15-8.8,23.6-9.3
				c20.5-1.1,38,13.3,42.5,33c3.1,13.5,2.4,27.9-0.6,41.3c-0.4,1.8,2.4,2.6,2.8,0.8c5-22.2,4.9-50-13-66.6
				c-14.7-13.6-39-15.7-55-3.2c-9.3,7.3-13.4,18.4-14.1,29.9C123.4,44,126.3,44,126.4,42.1"/>
			<path clip-path="url(#SVGID_4_)" fill="#163854" d="M205.6,82.3c9.8-18.9,38.4-16.7,48.7,0.3c5,8.2,6.4,18.8,3.2,28
				c-4,11.6-15.3,18.1-26.6,21.1c-1.8,0.5-1,3.2,0.8,2.8c9.5-2.5,18.8-7.3,24.6-15.4c5.1-7.1,6.6-16.2,5.2-24.7
				c-2.8-17.8-18.2-30.1-36.3-28.1c-9.4,1-17.8,6.1-22.2,14.6C202.3,82.5,204.8,83.9,205.6,82.3"/>
		</g>
	</g>
</g>
</svg>
