<?xml version="1.0" encoding="utf-8"?>
<!-- Generator: Adobe Illustrator 20.1.0, SVG Export Plug-In . SVG Version: 6.00 Build 0)  -->
<svg version="1.1" id="Laag_7" xmlns="http://www.w3.org/2000/svg" xmlns:xlink="http://www.w3.org/1999/xlink" x="0px" y="0px"
	 viewBox="0 0 1800 251.9" style="enable-background:new 0 0 1800 251.9;" xml:space="preserve">
<style type="text/css">
	.st0{opacity:0.7;fill:#FFFFFF;}
	.st1{fill:#FFFFFF;}
</style>
<path class="st0" d="M2.1,112c105.3-34.6,214.6-69.7,324.8-57.5c58.8,6.5,115.3,26.2,172.8,40.3c163.4,40,334,34,502.1,27.8
	c68.4-2.5,137.3-5.2,203.6-22.1c100.8-25.8,193.4-84.2,297.1-92c114.2-8.6,223,45.2,323.1,100.9c37.2,20.7,80.1,55.4,68,96.2
	c-11.6,39.1-63,46.4-103.8,46.4c-621.2-0.5-1242.4-1-1863.6-1.5c7.8-36.5,20.1-72,36.5-105.6c3.5-7.2,7.4-14.5,13.3-19.9
	C-16.9,118.3-7.2,115,2.1,112z"/>
<path class="st1" d="M-8.3,36.1c2-3.5,6.2-6,14.4-8.5c22.3-6.8,45.5-9.6,68.8-9.5c47.5,0.3,94.3,12.8,138.7,28.9
	c115.4,42,227.8,98,354.4,80c61.5-8.7,119.3-33.5,177.6-54.9C856.3,31.6,974.7,30,1090,49.3c58.3,9.7,115.7,24.2,172.6,40.1
	c51.4,14.4,95.3,31.6,150.2,24.5c24.4-3.2,48.3-9.2,71.7-16.5c63.3-20,126-48.5,192.4-48c71.9,0.5,138.9,34.8,201.2,70.9
	c1.6,0.9,3.2,1.9,4.1,3.5c1,1.9,0.7,4.2,0.3,6.4c-6.8,40.3-2.9,78.8,9.4,117.9c-640.3-2.3-1261.4-4.4-1901.7-6.7
	c-0.2,0-0.1-169-0.1-183.8C-10,47-11,40.7-8.3,36.1z"/>
</svg>
